<svg xmlns="http://www.w3.org/2000/svg"  viewBox="0 0 80 80" width="80px" height="80px"><path d="M 32 8 C 29.800781 8 28 9.800781 28 12 L 28 14.183594 C 27.152344 14.484375 26.484375 15.152344 26.183594 16 L 8 16 L 8 68 L 74 68 L 74 16 L 55.816406 16 C 55.515625 15.152344 54.847656 14.484375 54 14.183594 L 54 12 C 54 9.800781 52.199219 8 50 8 Z M 32 10 L 33.277344 10 C 33.625 10.59375 34.261719 11 35 11 L 47 11 C 47.738281 11 48.375 10.59375 48.722656 10 L 50 10 C 51.117188 10 52 10.882813 52 12 L 52 14.183594 C 51.152344 14.484375 50.484375 15.152344 50.183594 16 L 31.816406 16 C 31.515625 15.152344 30.847656 14.484375 30 14.183594 L 30 12 C 30 10.882813 30.882813 10 32 10 Z M 10 18 L 72 18 L 72 39 C 72 41.773438 69.773438 44 67 44 L 15 44 C 12.226563 44 10 41.773438 10 39 Z M 41 36 C 39.894531 36 39 36.894531 39 38 C 39 39.105469 39.894531 40 41 40 C 42.105469 40 43 39.105469 43 38 C 43 36.894531 42.105469 36 41 36 Z M 10 43.886719 C 11.273438 45.1875 13.042969 46 15 46 L 67 46 C 68.957031 46 70.726563 45.1875 72 43.886719 L 72 66 L 10 66 Z M 13 46 C 12.449219 46 12 46.449219 12 47 C 12 47.550781 12.449219 48 13 48 C 13.550781 48 14 47.550781 14 47 C 14 46.449219 13.550781 46 13 46 Z M 69 46 C 68.449219 46 68 46.449219 68 47 C 68 47.550781 68.449219 48 69 48 C 69.550781 48 70 47.550781 70 47 C 70 46.449219 69.550781 46 69 46 Z M 13 50 C 12.449219 50 12 50.449219 12 51 C 12 51.550781 12.449219 52 13 52 C 13.550781 52 14 51.550781 14 51 C 14 50.449219 13.550781 50 13 50 Z M 69 50 C 68.449219 50 68 50.449219 68 51 C 68 51.550781 68.449219 52 69 52 C 69.550781 52 70 51.550781 70 51 C 70 50.449219 69.550781 50 69 50 Z M 13 54 C 12.449219 54 12 54.449219 12 55 C 12 55.550781 12.449219 56 13 56 C 13.550781 56 14 55.550781 14 55 C 14 54.449219 13.550781 54 13 54 Z M 69 54 C 68.449219 54 68 54.449219 68 55 C 68 55.550781 68.449219 56 69 56 C 69.550781 56 70 55.550781 70 55 C 70 54.449219 69.550781 54 69 54 Z M 13 58 C 12.449219 58 12 58.449219 12 59 C 12 59.550781 12.449219 60 13 60 C 13.550781 60 14 59.550781 14 59 C 14 58.449219 13.550781 58 13 58 Z M 69 58 C 68.449219 58 68 58.449219 68 59 C 68 59.550781 68.449219 60 69 60 C 69.550781 60 70 59.550781 70 59 C 70 58.449219 69.550781 58 69 58 Z M 13 62 C 12.449219 62 12 62.449219 12 63 C 12 63.550781 12.449219 64 13 64 C 13.550781 64 14 63.550781 14 63 C 14 62.449219 13.550781 62 13 62 Z M 17 62 C 16.449219 62 16 62.449219 16 63 C 16 63.550781 16.449219 64 17 64 C 17.550781 64 18 63.550781 18 63 C 18 62.449219 17.550781 62 17 62 Z M 21 62 C 20.449219 62 20 62.449219 20 63 C 20 63.550781 20.449219 64 21 64 C 21.550781 64 22 63.550781 22 63 C 22 62.449219 21.550781 62 21 62 Z M 25 62 C 24.449219 62 24 62.449219 24 63 C 24 63.550781 24.449219 64 25 64 C 25.550781 64 26 63.550781 26 63 C 26 62.449219 25.550781 62 25 62 Z M 29 62 C 28.449219 62 28 62.449219 28 63 C 28 63.550781 28.449219 64 29 64 C 29.550781 64 30 63.550781 30 63 C 30 62.449219 29.550781 62 29 62 Z M 33 62 C 32.449219 62 32 62.449219 32 63 C 32 63.550781 32.449219 64 33 64 C 33.550781 64 34 63.550781 34 63 C 34 62.449219 33.550781 62 33 62 Z M 37 62 C 36.449219 62 36 62.449219 36 63 C 36 63.550781 36.449219 64 37 64 C 37.550781 64 38 63.550781 38 63 C 38 62.449219 37.550781 62 37 62 Z M 41 62 C 40.449219 62 40 62.449219 40 63 C 40 63.550781 40.449219 64 41 64 C 41.550781 64 42 63.550781 42 63 C 42 62.449219 41.550781 62 41 62 Z M 45 62 C 44.449219 62 44 62.449219 44 63 C 44 63.550781 44.449219 64 45 64 C 45.550781 64 46 63.550781 46 63 C 46 62.449219 45.550781 62 45 62 Z M 49 62 C 48.449219 62 48 62.449219 48 63 C 48 63.550781 48.449219 64 49 64 C 49.550781 64 50 63.550781 50 63 C 50 62.449219 49.550781 62 49 62 Z M 53 62 C 52.449219 62 52 62.449219 52 63 C 52 63.550781 52.449219 64 53 64 C 53.550781 64 54 63.550781 54 63 C 54 62.449219 53.550781 62 53 62 Z M 57 62 C 56.449219 62 56 62.449219 56 63 C 56 63.550781 56.449219 64 57 64 C 57.550781 64 58 63.550781 58 63 C 58 62.449219 57.550781 62 57 62 Z M 61 62 C 60.449219 62 60 62.449219 60 63 C 60 63.550781 60.449219 64 61 64 C 61.550781 64 62 63.550781 62 63 C 62 62.449219 61.550781 62 61 62 Z M 65 62 C 64.449219 62 64 62.449219 64 63 C 64 63.550781 64.449219 64 65 64 C 65.550781 64 66 63.550781 66 63 C 66 62.449219 65.550781 62 65 62 Z M 69 62 C 68.449219 62 68 62.449219 68 63 C 68 63.550781 68.449219 64 69 64 C 69.550781 64 70 63.550781 70 63 C 70 62.449219 69.550781 62 69 62 Z"/></svg>